<svg id="svg" version="1.1" xmlns="http://www.w3.org/2000/svg" xmlns:xlink="http://www.w3.org/1999/xlink" width="400" height="400" viewBox="0, 0, 400,400"><g id="svgg"><path id="path0" d="M0.000 200.000 L 0.000 400.000 69.600 400.000 L 139.200 400.000 139.200 385.417 L 139.200 370.834 140.600 369.717 L 142.000 368.600 142.006 348.400 C 142.009 337.290,142.144 328.020,142.306 327.800 C 142.468 327.580,142.960 327.201,143.400 326.957 C 144.138 326.549,144.217 325.975,144.424 319.557 C 144.547 315.731,144.682 312.551,144.724 312.490 C 144.766 312.430,145.250 312.209,145.800 312.000 C 146.795 311.622,146.800 311.594,146.800 306.485 L 146.800 301.350 145.600 300.463 C 144.940 299.975,144.400 299.311,144.400 298.988 C 144.400 298.527,143.801 298.400,141.633 298.400 C 138.251 298.400,137.733 298.217,136.975 296.752 L 136.379 295.600 132.290 295.594 C 127.922 295.587,127.580 295.493,126.846 294.100 C 126.424 293.298,126.068 293.200,123.586 293.200 C 120.833 293.200,119.200 292.455,119.200 291.200 C 119.200 290.972,118.011 290.800,116.433 290.800 C 113.112 290.800,112.450 290.584,111.979 289.345 C 111.652 288.484,111.387 288.400,108.984 288.400 C 105.991 288.400,104.923 287.976,104.391 286.576 C 104.073 285.741,103.760 285.600,102.222 285.600 C 100.688 285.600,100.294 285.424,99.537 284.400 C 98.716 283.290,98.463 283.200,96.157 283.200 C 93.119 283.200,92.443 282.965,91.979 281.745 C 91.674 280.942,91.346 280.800,89.791 280.800 C 88.179 280.800,87.882 280.658,87.281 279.603 C 86.765 278.694,86.310 278.403,85.400 278.397 C 83.352 278.383,82.484 277.967,81.984 276.762 C 81.558 275.734,81.305 275.600,79.780 275.600 C 78.143 275.600,76.800 274.862,76.800 273.963 C 76.800 273.754,76.370 273.387,75.844 273.147 C 75.318 272.908,74.692 272.282,74.453 271.756 C 74.099 270.979,73.716 270.800,72.409 270.800 C 70.847 270.800,69.200 269.774,69.200 268.800 C 69.200 268.580,68.520 268.400,67.689 268.400 C 66.033 268.400,64.400 267.490,64.400 266.567 C 64.400 266.244,63.947 265.808,63.393 265.597 C 62.839 265.387,62.213 264.761,62.003 264.207 C 61.683 263.366,61.360 263.200,60.043 263.200 C 58.116 263.200,57.200 262.879,57.200 262.205 C 57.200 261.924,56.570 261.214,55.800 260.627 C 55.030 260.040,54.400 259.298,54.400 258.980 C 54.400 258.560,53.907 258.400,52.616 258.400 C 50.920 258.400,49.200 257.350,49.200 256.316 C 49.200 256.133,48.770 255.787,48.244 255.547 C 47.718 255.308,47.099 254.697,46.868 254.191 C 46.638 253.684,46.087 253.155,45.645 253.014 C 45.203 252.874,44.729 252.406,44.592 251.975 C 44.455 251.544,43.816 250.919,43.172 250.585 C 42.527 250.252,42.000 249.710,42.000 249.381 C 42.000 249.052,41.580 248.591,41.066 248.357 C 40.552 248.123,39.829 247.418,39.458 246.790 C 39.087 246.162,38.455 245.544,38.052 245.417 C 37.650 245.289,37.125 244.754,36.885 244.227 C 36.645 243.700,36.087 243.155,35.645 243.014 C 35.203 242.874,34.729 242.406,34.592 241.975 C 34.455 241.544,33.816 240.919,33.172 240.585 C 32.527 240.252,32.000 239.710,32.000 239.381 C 32.000 239.052,31.580 238.591,31.066 238.357 C 30.552 238.123,29.822 237.407,29.443 236.766 C 29.065 236.125,28.598 235.600,28.406 235.600 C 27.594 235.600,26.800 234.239,26.800 232.847 C 26.800 231.648,26.561 231.174,25.600 230.463 C 24.940 229.975,24.400 229.324,24.400 229.015 C 24.400 228.706,23.995 228.328,23.500 228.173 C 22.276 227.791,22.013 227.287,22.006 225.310 C 22.001 223.856,21.839 223.538,20.848 223.025 C 19.397 222.275,19.200 221.740,19.200 218.559 C 19.200 216.193,19.118 215.945,18.190 215.523 C 17.635 215.270,17.088 214.689,16.974 214.231 C 16.491 212.285,16.992 182.669,17.511 182.496 C 18.130 182.290,22.268 178.197,22.470 177.591 C 22.549 177.354,23.491 177.034,24.563 176.880 C 25.905 176.687,26.652 176.351,26.957 175.800 C 27.712 174.437,27.923 174.412,38.800 174.412 C 49.999 174.412,49.829 174.389,50.918 176.100 C 51.303 176.705,51.872 177.200,52.182 177.200 C 52.492 177.200,52.850 177.527,52.977 177.928 C 53.104 178.328,53.746 179.053,54.404 179.540 C 55.062 180.026,55.600 180.667,55.600 180.963 C 55.600 181.260,56.123 181.720,56.762 181.984 C 58.335 182.636,58.389 182.988,58.389 192.600 C 58.389 202.179,58.331 202.566,56.800 203.200 C 56.182 203.456,55.582 204.024,55.468 204.462 C 55.353 204.901,54.901 205.353,54.462 205.468 C 54.024 205.582,53.455 206.183,53.199 206.803 C 52.942 207.423,52.342 208.029,51.866 208.149 C 51.390 208.268,50.820 208.779,50.600 209.283 C 50.380 209.787,49.793 210.378,49.296 210.596 C 48.799 210.814,48.280 211.354,48.142 211.796 C 47.792 212.920,47.252 213.187,45.310 213.194 C 43.840 213.199,43.540 213.356,43.000 214.400 C 42.450 215.463,42.175 215.600,40.581 215.600 C 39.037 215.600,38.716 215.746,38.314 216.630 C 38.055 217.196,37.339 217.921,36.722 218.240 C 35.080 219.089,35.106 221.298,36.765 221.986 C 37.439 222.265,38.033 222.876,38.173 223.434 C 38.306 223.965,38.669 224.400,38.979 224.400 C 40.058 224.400,40.800 225.623,40.800 227.402 C 40.800 228.798,40.961 229.197,41.604 229.401 C 42.047 229.542,42.670 230.161,42.988 230.778 C 43.307 231.394,43.933 231.994,44.379 232.110 C 44.825 232.227,45.359 232.767,45.566 233.311 C 45.773 233.854,46.385 234.410,46.927 234.546 C 47.492 234.688,48.011 235.178,48.145 235.697 C 48.273 236.193,48.923 236.907,49.589 237.281 C 50.255 237.656,50.800 238.229,50.800 238.554 C 50.800 238.880,51.162 239.261,51.604 239.401 C 52.047 239.542,52.670 240.161,52.988 240.778 C 53.307 241.394,53.933 241.994,54.379 242.110 C 54.825 242.227,55.368 242.790,55.585 243.361 C 55.925 244.254,56.220 244.401,57.690 244.406 C 59.639 244.413,59.948 244.576,60.918 246.100 C 61.303 246.705,61.855 247.200,62.145 247.200 C 62.435 247.200,62.877 247.650,63.127 248.200 C 63.494 249.005,63.877 249.202,65.091 249.213 C 66.749 249.227,67.619 249.731,68.349 251.100 C 68.612 251.595,69.087 252.000,69.404 252.000 C 69.720 252.000,70.259 252.540,70.600 253.200 C 71.104 254.176,71.474 254.400,72.578 254.400 C 74.461 254.400,75.203 254.755,75.621 255.855 C 75.912 256.620,76.270 256.800,77.501 256.800 C 79.139 256.800,80.800 257.704,80.800 258.596 C 80.800 258.898,81.162 259.261,81.604 259.401 C 82.047 259.542,82.681 260.184,83.015 260.828 C 83.539 261.841,83.849 262.001,85.310 262.006 C 87.287 262.013,87.791 262.276,88.173 263.500 C 88.405 264.244,88.745 264.401,90.127 264.406 C 92.035 264.413,92.489 264.638,93.154 265.900 C 93.524 266.602,93.977 266.800,95.214 266.800 C 96.753 266.800,98.400 267.834,98.400 268.800 C 98.400 269.030,99.646 269.200,101.338 269.200 C 104.259 269.200,105.600 269.794,105.600 271.089 C 105.600 271.680,106.590 272.000,108.422 272.000 C 109.748 272.000,110.072 272.178,110.600 273.200 C 111.202 274.364,111.307 274.400,114.110 274.406 C 117.302 274.413,117.762 274.582,118.173 275.900 C 118.430 276.723,118.700 276.801,121.327 276.806 C 124.453 276.813,124.844 276.951,125.554 278.300 C 125.970 279.090,126.341 279.200,128.581 279.200 C 131.739 279.200,132.275 279.399,133.025 280.848 L 133.621 282.000 138.000 282.000 L 142.379 282.000 143.000 283.200 C 143.605 284.370,143.695 284.400,146.595 284.400 C 149.581 284.400,149.753 284.470,151.007 286.200 C 151.580 286.991,151.590 286.989,151.844 286.084 C 151.986 285.580,152.619 284.901,153.251 284.574 C 154.224 284.071,154.400 283.736,154.400 282.390 C 154.400 280.847,155.432 279.200,156.400 279.200 C 156.620 279.200,156.802 278.615,156.805 277.900 C 156.814 275.781,157.234 274.807,158.248 274.552 C 159.068 274.346,159.200 274.072,159.200 272.574 C 159.200 271.065,159.386 270.686,160.600 269.717 C 161.803 268.757,162.000 268.362,162.000 266.910 C 162.000 265.437,162.154 265.141,163.200 264.600 C 164.228 264.068,164.400 263.752,164.400 262.390 C 164.400 260.847,165.432 259.200,166.400 259.200 C 166.620 259.200,166.802 258.615,166.805 257.900 C 166.814 255.781,167.234 254.807,168.248 254.552 C 169.063 254.348,169.200 254.070,169.200 252.622 C 169.200 251.155,169.412 250.741,170.800 249.495 C 171.680 248.705,172.400 247.865,172.400 247.629 C 172.400 247.393,172.678 247.200,173.019 247.200 C 173.359 247.200,173.942 246.669,174.314 246.021 C 174.686 245.372,175.409 244.651,175.919 244.418 C 176.690 244.067,176.827 243.740,176.724 242.498 L 176.600 241.000 172.273 240.886 L 167.947 240.772 167.273 239.589 C 166.626 238.450,166.491 238.405,163.729 238.403 C 160.780 238.400,160.111 238.103,159.192 236.386 C 158.861 235.767,158.241 235.613,155.699 235.517 C 152.771 235.406,152.580 235.342,152.082 234.300 C 151.581 233.252,151.421 233.200,148.678 233.194 C 145.547 233.187,145.156 233.050,144.446 231.700 C 144.076 230.998,143.623 230.800,142.386 230.800 C 140.847 230.800,139.200 229.766,139.200 228.800 C 139.200 228.580,138.520 228.400,137.689 228.400 C 136.033 228.400,134.400 227.490,134.400 226.567 C 134.400 226.244,133.947 225.808,133.393 225.597 C 132.839 225.387,132.213 224.761,132.003 224.207 C 131.683 223.366,131.360 223.200,130.043 223.200 C 128.116 223.200,127.200 222.879,127.200 222.205 C 127.200 221.924,126.570 221.214,125.800 220.627 C 125.030 220.040,124.400 219.302,124.400 218.987 C 124.400 218.673,123.965 218.306,123.434 218.173 C 122.876 218.033,122.265 217.439,121.986 216.765 C 121.558 215.733,121.306 215.600,119.780 215.600 C 118.143 215.600,116.800 214.862,116.800 213.963 C 116.800 213.754,116.353 213.379,115.808 213.131 C 115.262 212.882,114.709 212.344,114.579 211.935 C 114.450 211.526,113.816 210.919,113.172 210.585 C 112.527 210.252,112.000 209.710,112.000 209.381 C 112.000 209.052,111.580 208.591,111.066 208.357 C 110.552 208.123,109.829 207.418,109.458 206.790 C 109.087 206.162,108.436 205.539,108.012 205.404 C 107.588 205.269,107.126 204.797,106.986 204.355 C 106.845 203.913,106.300 203.355,105.773 203.115 C 105.246 202.875,104.709 202.344,104.579 201.935 C 104.450 201.526,103.816 200.919,103.172 200.585 C 102.527 200.252,102.000 199.710,102.000 199.381 C 102.000 199.052,101.580 198.591,101.066 198.357 C 100.552 198.123,99.829 197.418,99.458 196.790 C 99.087 196.162,98.436 195.539,98.012 195.404 C 97.588 195.269,97.126 194.797,96.986 194.355 C 96.845 193.913,96.300 193.355,95.773 193.115 C 95.246 192.875,94.709 192.344,94.579 191.935 C 94.450 191.526,93.816 190.919,93.172 190.585 C 92.181 190.073,92.000 189.740,92.000 188.422 C 92.000 185.944,91.729 185.600,89.773 185.600 C 88.675 185.600,87.841 185.368,87.516 184.971 C 86.857 184.169,85.831 183.143,85.029 182.484 C 84.629 182.156,84.400 181.322,84.400 180.192 C 84.400 178.647,84.274 178.384,83.434 178.173 C 82.876 178.033,82.265 177.439,81.986 176.765 C 81.720 176.124,81.283 175.600,81.013 175.600 C 80.045 175.600,79.200 174.141,79.200 172.469 C 79.200 171.230,79.041 170.800,78.581 170.800 C 78.241 170.800,77.670 170.291,77.313 169.668 C 76.956 169.046,76.154 168.244,75.532 167.887 C 74.447 167.264,74.400 167.111,74.400 164.229 C 74.400 161.291,74.372 161.206,73.200 160.600 L 72.000 159.979 72.000 155.600 L 72.000 151.221 70.848 150.625 C 69.177 149.761,69.200 149.981,69.200 134.784 L 69.200 120.834 70.600 119.717 L 72.000 118.600 72.000 114.481 L 72.000 110.363 73.197 109.681 C 74.339 109.032,74.395 108.876,74.397 106.333 C 74.401 103.114,74.624 102.447,75.855 101.979 C 76.632 101.684,76.800 101.334,76.800 100.010 C 76.800 98.447,77.826 96.800,78.800 96.800 C 79.020 96.800,79.200 96.158,79.200 95.374 C 79.200 93.555,79.791 92.460,81.024 91.991 C 81.831 91.684,82.000 91.346,82.000 90.043 C 82.000 88.065,82.323 87.200,83.061 87.200 C 83.378 87.200,83.930 86.691,84.287 86.068 C 84.644 85.446,85.446 84.644,86.068 84.287 C 86.691 83.930,87.200 83.388,87.200 83.083 C 87.200 82.778,87.650 82.323,88.200 82.073 C 89.005 81.706,89.202 81.323,89.213 80.109 C 89.227 78.451,89.731 77.581,91.100 76.851 C 91.595 76.588,92.000 76.113,92.000 75.796 C 92.000 75.480,92.505 74.959,93.122 74.640 C 93.739 74.321,94.455 73.596,94.714 73.030 C 94.972 72.463,95.461 72.000,95.800 72.000 C 96.139 72.000,96.613 71.570,96.853 71.044 C 97.092 70.518,97.699 69.868,98.200 69.600 C 98.702 69.332,99.332 68.702,99.600 68.200 C 99.868 67.699,100.518 67.092,101.044 66.853 C 101.570 66.613,102.000 66.148,102.000 65.819 C 102.000 65.490,102.505 64.959,103.122 64.640 C 103.739 64.321,104.455 63.596,104.714 63.030 C 104.972 62.463,105.461 62.000,105.800 62.000 C 106.139 62.000,106.613 61.570,106.853 61.044 C 107.092 60.518,107.699 59.868,108.200 59.600 C 108.702 59.332,109.332 58.702,109.600 58.200 C 109.868 57.699,110.518 57.092,111.044 56.853 C 111.570 56.613,112.000 56.154,112.000 55.832 C 112.000 55.016,112.712 54.654,114.800 54.410 C 116.168 54.251,116.695 53.984,116.995 53.300 C 117.212 52.805,117.515 52.400,117.669 52.400 C 118.037 52.400,122.285 48.145,122.470 47.591 C 122.549 47.354,123.510 47.033,124.607 46.878 C 126.149 46.660,126.691 46.389,127.000 45.681 C 127.220 45.178,127.782 44.670,128.250 44.553 C 128.717 44.435,129.300 43.899,129.545 43.361 C 129.790 42.824,130.442 42.212,130.995 42.002 C 131.548 41.792,132.000 41.337,132.000 40.991 C 132.000 40.646,132.539 40.056,133.197 39.681 C 133.856 39.307,134.396 38.796,134.397 38.547 C 134.399 38.299,135.030 37.614,135.800 37.027 C 136.570 36.440,137.200 35.718,137.200 35.422 C 137.200 34.725,138.093 34.400,140.011 34.400 C 141.303 34.400,141.642 34.220,142.081 33.300 C 142.529 32.362,142.886 32.182,144.501 32.078 C 145.970 31.984,146.500 31.759,146.863 31.078 C 147.580 29.731,148.458 29.227,150.109 29.213 C 151.320 29.203,151.706 29.005,152.070 28.207 C 152.495 27.273,153.043 27.057,155.957 26.673 C 156.264 26.633,156.714 26.240,156.957 25.800 C 157.201 25.360,157.459 24.910,157.531 24.800 C 157.604 24.690,159.655 24.510,162.090 24.400 C 165.986 24.224,166.569 24.104,166.958 23.400 C 167.707 22.044,167.943 22.012,177.309 22.006 L 186.417 22.000 186.853 21.044 C 187.092 20.518,187.718 19.858,188.244 19.576 C 188.770 19.295,189.200 18.949,189.200 18.808 C 189.200 16.892,189.972 16.800,205.916 16.805 C 222.358 16.811,222.500 16.823,223.143 18.234 C 223.563 19.156,223.755 19.200,227.359 19.200 C 231.799 19.200,232.239 19.328,233.025 20.848 C 233.605 21.971,233.702 22.000,236.800 22.000 C 239.928 22.000,239.989 22.019,240.600 23.200 C 241.202 24.364,241.307 24.400,244.110 24.406 C 247.278 24.413,247.763 24.586,248.157 25.850 C 248.371 26.534,248.827 26.739,250.494 26.899 C 251.733 27.018,252.639 27.316,252.747 27.640 C 252.846 27.937,253.528 28.713,254.263 29.364 C 254.999 30.015,255.600 30.762,255.600 31.025 C 255.600 31.288,256.124 31.720,256.765 31.986 C 257.439 32.265,258.033 32.876,258.173 33.434 C 258.381 34.264,258.654 34.401,260.108 34.406 C 262.035 34.413,262.488 34.635,263.154 35.900 C 263.524 36.602,263.977 36.800,265.214 36.800 C 266.735 36.800,268.400 37.831,268.400 38.773 C 268.400 38.978,268.762 39.261,269.204 39.401 C 269.647 39.542,270.281 40.184,270.615 40.828 C 270.948 41.473,271.481 42.000,271.800 42.000 C 272.119 42.000,272.652 42.527,272.985 43.172 C 273.319 43.816,273.964 44.461,274.419 44.606 C 274.874 44.750,275.411 45.303,275.613 45.834 C 275.912 46.622,276.261 46.800,277.501 46.800 C 279.158 46.800,280.800 47.707,280.800 48.623 C 280.800 49.037,281.290 49.200,282.538 49.200 C 284.230 49.200,285.600 50.042,285.600 51.083 C 285.600 51.314,286.124 51.720,286.765 51.986 C 287.414 52.254,288.033 52.876,288.162 53.390 C 288.293 53.912,288.799 54.413,289.328 54.546 C 289.842 54.675,290.470 55.235,290.723 55.790 C 291.102 56.622,291.462 56.800,292.763 56.800 C 294.237 56.800,295.600 57.571,295.600 58.406 C 295.600 58.598,296.125 59.065,296.766 59.443 C 297.407 59.822,298.123 60.552,298.357 61.066 C 298.712 61.845,299.084 62.000,300.600 62.000 C 302.164 62.000,302.482 62.143,302.886 63.030 C 303.145 63.596,303.861 64.321,304.478 64.640 C 305.450 65.143,305.600 65.456,305.600 66.988 C 305.600 68.515,305.758 68.848,306.766 69.443 C 307.407 69.822,308.123 70.552,308.357 71.066 C 308.712 71.845,309.084 72.000,310.600 72.000 C 312.164 72.000,312.482 72.143,312.886 73.030 C 313.145 73.596,313.861 74.321,314.478 74.640 C 315.450 75.143,315.600 75.456,315.600 76.988 C 315.600 78.515,315.758 78.848,316.766 79.443 C 317.407 79.822,318.123 80.552,318.357 81.066 C 318.591 81.580,319.046 82.000,319.368 82.000 C 320.184 82.000,320.546 82.712,320.790 84.800 C 320.950 86.170,321.216 86.695,321.904 86.996 C 322.401 87.214,322.897 87.677,323.008 88.024 C 323.118 88.371,323.746 89.053,324.404 89.540 C 325.425 90.295,325.600 90.688,325.600 92.233 C 325.600 93.869,325.711 94.080,326.760 94.446 C 327.979 94.871,328.385 95.730,328.395 97.900 C 328.398 98.615,328.580 99.200,328.800 99.200 C 329.766 99.200,330.800 100.847,330.800 102.386 C 330.800 103.623,330.998 104.076,331.700 104.446 C 333.050 105.156,333.187 105.547,333.194 108.678 C 333.200 111.421,333.252 111.581,334.300 112.082 C 335.342 112.580,335.406 112.771,335.517 115.699 C 335.613 118.241,335.767 118.861,336.386 119.192 C 338.500 120.324,338.400 119.171,338.394 142.529 C 338.391 154.448,338.256 164.384,338.094 164.609 C 337.932 164.834,337.305 165.333,336.700 165.718 C 335.661 166.380,335.600 166.584,335.600 169.399 C 335.600 172.306,335.570 172.395,334.400 173.000 L 333.200 173.621 333.194 177.710 C 333.187 182.078,333.093 182.420,331.700 183.154 C 330.892 183.580,330.800 183.927,330.800 186.552 C 330.800 189.489,330.204 190.800,328.869 190.800 C 328.556 190.800,328.400 191.719,328.400 193.567 C 328.400 196.949,328.217 197.467,326.752 198.225 C 326.118 198.553,325.600 199.081,325.600 199.400 C 325.600 199.719,325.060 200.259,324.400 200.600 C 323.410 201.112,323.200 201.468,323.200 202.637 C 323.200 204.336,322.592 205.600,321.776 205.600 C 321.448 205.600,321.008 206.052,320.798 206.605 C 320.588 207.158,319.982 207.807,319.452 208.049 C 318.922 208.291,318.291 208.922,318.049 209.452 C 317.807 209.982,317.158 210.588,316.605 210.798 C 316.052 211.008,315.600 211.450,315.600 211.780 C 315.600 212.110,315.095 212.641,314.478 212.960 C 313.861 213.279,313.145 214.004,312.886 214.570 C 312.628 215.137,312.139 215.600,311.799 215.600 C 311.459 215.600,311.008 216.052,310.798 216.605 C 310.588 217.158,309.982 217.807,309.452 218.049 C 308.922 218.291,308.291 218.922,308.049 219.452 C 307.807 219.982,307.158 220.588,306.605 220.798 C 306.052 221.008,305.600 221.450,305.600 221.780 C 305.600 222.110,305.073 222.652,304.428 222.985 C 303.784 223.319,303.139 223.964,302.994 224.419 C 302.850 224.874,302.297 225.411,301.766 225.613 C 301.235 225.815,300.800 226.244,300.800 226.567 C 300.800 227.497,299.162 228.400,297.474 228.400 C 296.251 228.400,295.880 228.572,295.712 229.216 C 295.594 229.665,294.981 230.299,294.349 230.626 C 293.717 230.953,293.200 231.383,293.200 231.582 C 293.200 232.422,291.846 233.200,290.386 233.200 C 289.178 233.200,288.722 233.402,288.354 234.100 C 287.691 235.360,287.234 235.587,285.349 235.594 C 283.905 235.599,283.636 235.747,283.216 236.762 C 282.716 237.967,281.848 238.383,279.800 238.397 C 278.890 238.403,278.435 238.694,277.919 239.603 C 277.257 240.766,277.151 240.800,274.233 240.800 C 271.524 240.800,271.181 240.889,270.754 241.700 C 270.494 242.195,270.082 242.732,269.840 242.894 C 269.598 243.056,254.060 243.191,235.310 243.194 L 201.221 243.200 200.600 244.400 C 200.049 245.465,199.776 245.600,198.171 245.600 C 196.589 245.600,196.278 245.747,195.686 246.779 C 195.314 247.428,194.602 248.144,194.105 248.371 C 193.607 248.597,193.200 248.954,193.200 249.163 C 193.200 250.072,191.857 250.800,190.179 250.800 C 188.648 250.800,188.383 250.927,188.173 251.766 C 188.035 252.314,187.443 252.934,186.803 253.199 C 186.183 253.455,185.586 254.010,185.476 254.431 C 185.366 254.852,184.944 255.319,184.538 255.469 C 183.500 255.853,183.214 256.393,183.200 258.000 C 183.186 259.634,182.927 260.108,181.700 260.754 C 181.037 261.103,180.800 261.585,180.800 262.581 C 180.800 264.461,180.445 265.203,179.345 265.621 C 178.594 265.907,178.400 266.275,178.400 267.416 C 178.400 269.235,177.812 270.339,176.598 270.801 C 175.811 271.100,175.624 271.488,175.523 273.041 C 175.432 274.423,175.189 275.034,174.600 275.359 C 173.444 275.996,173.214 276.431,173.200 278.000 C 173.186 279.634,172.927 280.108,171.700 280.754 C 171.037 281.103,170.800 281.585,170.800 282.581 C 170.800 284.467,170.445 285.203,169.328 285.627 C 168.416 285.974,168.371 286.148,168.482 288.897 L 168.600 291.800 171.797 292.000 C 174.804 292.188,175.024 292.265,175.518 293.300 C 176.039 294.390,176.079 294.400,179.989 294.400 C 184.522 294.400,185.127 294.556,185.621 295.855 C 185.966 296.763,186.140 296.800,190.090 296.806 C 194.478 296.813,194.820 296.906,195.554 298.300 C 195.999 299.144,196.283 299.200,200.152 299.200 C 204.340 299.200,205.600 299.645,205.600 301.124 C 205.600 301.771,206.830 301.986,211.196 302.100 C 214.901 302.198,215.004 302.226,215.518 303.300 L 216.044 304.400 245.012 304.400 L 273.979 304.400 274.600 303.200 L 275.221 302.000 279.600 302.000 L 283.979 302.000 284.575 300.848 C 285.325 299.397,285.860 299.200,289.041 299.200 C 291.377 299.200,291.658 299.110,292.057 298.234 C 292.587 297.071,293.423 296.813,296.673 296.805 C 298.797 296.801,299.182 296.686,299.401 295.996 C 299.542 295.553,300.161 294.930,300.778 294.612 C 301.394 294.293,301.994 293.667,302.110 293.221 C 302.227 292.775,302.790 292.232,303.361 292.015 C 304.254 291.675,304.401 291.380,304.406 289.910 C 304.413 288.029,304.611 287.610,305.800 286.967 C 306.240 286.729,306.780 286.137,307.000 285.651 C 307.220 285.164,307.805 284.665,308.300 284.540 C 309.056 284.350,309.200 284.042,309.200 282.622 C 309.200 281.155,309.412 280.741,310.800 279.495 C 311.680 278.705,312.400 277.908,312.400 277.724 C 312.400 277.540,312.805 277.212,313.300 276.995 C 313.897 276.733,314.237 276.196,314.310 275.400 C 314.523 273.071,314.833 272.368,315.811 271.996 C 316.717 271.651,316.800 271.409,316.805 269.110 C 316.813 265.835,317.109 264.838,318.152 264.576 C 318.622 264.458,319.312 263.830,319.685 263.181 C 320.058 262.531,320.646 262.000,320.991 262.000 C 321.337 262.000,321.792 261.548,322.002 260.995 C 322.212 260.442,322.838 259.783,323.392 259.531 C 323.946 259.278,324.400 258.852,324.400 258.583 C 324.400 258.315,325.030 257.614,325.800 257.027 C 326.570 256.440,327.200 255.718,327.200 255.422 C 327.200 254.498,328.218 254.400,337.733 254.406 C 347.385 254.413,347.724 254.459,348.157 255.850 C 348.371 256.534,348.827 256.739,350.494 256.899 C 351.733 257.018,352.639 257.316,352.747 257.640 C 352.846 257.937,353.528 258.713,354.263 259.364 C 354.999 260.015,355.600 260.762,355.600 261.025 C 355.600 261.288,356.123 261.720,356.762 261.984 C 357.967 262.484,358.383 263.352,358.397 265.400 C 358.403 266.310,358.694 266.765,359.603 267.281 L 360.800 267.963 360.800 273.719 C 360.800 279.648,360.486 280.800,358.869 280.800 C 358.581 280.800,358.400 281.487,358.400 282.584 C 358.400 283.735,358.174 284.551,357.762 284.884 C 357.201 285.338,356.525 285.992,354.815 287.735 C 354.565 287.991,354.054 288.506,353.680 288.880 C 353.306 289.254,352.820 289.740,352.600 289.960 C 352.380 290.180,351.840 290.716,351.400 291.151 C 350.960 291.587,350.368 292.226,350.084 292.571 C 349.636 293.117,348.008 293.199,337.684 293.194 C 325.337 293.188,325.222 293.175,324.446 291.700 C 323.756 290.390,321.353 290.426,320.747 291.756 C 320.508 292.282,319.882 292.908,319.356 293.147 C 318.618 293.484,318.400 293.896,318.400 294.959 C 318.400 296.892,318.072 297.542,316.752 298.225 C 316.118 298.553,315.600 299.081,315.600 299.400 C 315.600 299.719,315.073 300.252,314.428 300.585 C 313.784 300.919,313.145 301.544,313.008 301.975 C 312.871 302.406,312.406 302.871,311.975 303.008 C 311.544 303.145,310.919 303.784,310.585 304.428 C 310.252 305.073,309.719 305.600,309.400 305.600 C 309.081 305.600,308.559 306.105,308.240 306.722 C 307.921 307.339,307.196 308.055,306.630 308.314 C 306.063 308.572,305.600 309.050,305.600 309.377 C 305.600 310.350,304.224 310.800,301.253 310.800 C 298.700 310.800,298.429 310.879,298.173 311.700 C 297.762 313.018,297.302 313.187,294.110 313.194 C 291.307 313.200,291.202 313.236,290.600 314.400 L 289.979 315.600 285.580 315.600 C 281.284 315.600,281.171 315.623,280.809 316.576 C 280.107 318.422,280.545 318.400,244.855 318.400 C 208.049 318.400,210.340 318.530,209.183 316.369 C 208.818 315.686,208.306 315.600,204.598 315.600 C 200.424 315.600,200.424 315.600,199.537 314.400 C 198.656 313.208,198.622 313.200,194.725 313.200 C 190.789 313.200,189.200 312.625,189.200 311.200 C 189.200 310.959,187.533 310.800,185.000 310.800 C 180.775 310.800,179.200 310.257,179.200 308.800 C 179.200 308.559,177.543 308.400,175.029 308.400 C 170.683 308.400,170.177 308.225,169.192 306.386 C 168.861 305.767,168.241 305.613,165.699 305.517 C 162.766 305.406,162.581 305.344,162.078 304.292 C 161.089 302.222,160.800 303.612,160.800 310.442 L 160.800 317.237 159.603 317.919 L 158.405 318.600 158.397 324.800 C 158.388 332.081,158.290 332.583,156.765 333.214 L 155.607 333.694 155.504 354.304 C 155.402 374.443,155.382 374.923,154.600 375.356 C 153.233 376.114,153.212 376.306,153.206 388.300 L 153.200 400.000 276.600 400.000 L 400.000 400.000 400.000 200.000 L 400.000 0.000 200.000 0.000 L 0.000 0.000 0.000 200.000 M208.173 31.700 C 207.738 33.095,207.349 33.187,201.800 33.200 C 196.396 33.213,196.088 33.279,195.357 34.600 C 194.936 35.359,194.440 35.405,185.661 35.507 L 176.409 35.615 175.714 36.707 C 174.658 38.366,174.574 38.387,168.914 38.394 C 163.842 38.400,163.609 38.436,163.154 39.300 C 162.489 40.562,162.035 40.787,160.127 40.794 C 158.745 40.799,158.405 40.956,158.173 41.700 C 157.791 42.924,157.287 43.187,155.310 43.194 C 153.840 43.199,153.540 43.356,153.000 44.400 C 152.659 45.060,152.110 45.600,151.780 45.600 C 151.450 45.600,151.013 46.039,150.809 46.576 C 150.277 47.976,149.209 48.400,146.218 48.400 C 143.828 48.400,143.542 48.489,143.147 49.356 C 142.908 49.882,142.297 50.501,141.791 50.732 C 141.284 50.962,140.760 51.495,140.627 51.915 C 140.494 52.335,139.954 52.875,139.427 53.115 C 138.900 53.355,138.360 53.895,138.227 54.315 C 138.094 54.735,137.535 55.283,136.986 55.533 C 136.437 55.784,135.791 56.421,135.550 56.950 C 135.309 57.479,134.682 58.108,134.156 58.347 C 133.630 58.587,133.200 58.954,133.200 59.163 C 133.200 60.072,131.857 60.800,130.179 60.800 C 128.648 60.800,128.383 60.927,128.173 61.766 C 128.035 62.314,127.443 62.934,126.803 63.199 C 126.183 63.455,125.582 64.024,125.468 64.462 C 125.353 64.901,124.901 65.353,124.462 65.468 C 124.024 65.582,123.456 66.182,123.200 66.800 C 122.713 67.976,121.831 68.385,119.764 68.395 C 118.834 68.399,118.415 68.650,118.069 69.408 C 117.817 69.962,117.158 70.588,116.605 70.798 C 116.052 71.008,115.600 71.450,115.600 71.780 C 115.600 72.110,115.073 72.652,114.428 72.985 C 113.784 73.319,113.139 73.964,112.994 74.419 C 112.850 74.874,112.297 75.411,111.766 75.613 C 110.948 75.924,110.800 76.248,110.800 77.728 C 110.800 79.455,109.958 80.800,108.876 80.800 C 108.623 80.800,108.306 81.235,108.173 81.766 C 108.035 82.314,107.443 82.934,106.803 83.199 C 106.183 83.455,105.582 84.024,105.468 84.462 C 105.353 84.901,104.901 85.353,104.462 85.468 C 104.024 85.582,103.455 86.183,103.199 86.803 C 102.942 87.423,102.342 88.029,101.866 88.149 C 101.390 88.268,100.820 88.779,100.600 89.283 C 100.380 89.787,99.787 90.380,99.283 90.600 C 98.779 90.820,98.268 91.390,98.149 91.866 C 98.029 92.342,97.406 92.949,96.765 93.214 C 95.746 93.637,95.599 93.904,95.594 95.349 C 95.587 97.234,95.360 97.691,94.100 98.354 C 93.415 98.715,93.199 99.184,93.194 100.314 C 93.187 102.033,92.940 102.501,91.700 103.154 C 90.970 103.539,90.800 103.968,90.800 105.433 C 90.800 107.018,90.655 107.320,89.603 107.919 C 88.453 108.573,88.405 108.712,88.396 111.400 C 88.387 114.479,88.300 114.700,86.700 115.718 L 85.600 116.418 85.594 121.709 C 85.587 127.305,85.519 127.607,84.100 128.354 C 83.215 128.820,83.200 128.955,83.200 136.404 L 83.200 143.979 84.400 144.600 L 85.600 145.221 85.600 149.631 L 85.600 154.042 86.760 154.446 C 88.119 154.920,88.387 155.689,88.395 159.137 C 88.399 161.353,88.504 161.702,89.216 161.888 C 89.665 162.006,90.299 162.619,90.626 163.251 C 90.953 163.883,91.383 164.400,91.582 164.400 C 92.405 164.400,93.200 165.752,93.200 167.153 C 93.200 168.352,93.439 168.826,94.400 169.537 C 95.060 170.025,95.600 170.667,95.600 170.963 C 95.600 171.260,96.124 171.720,96.765 171.986 C 97.414 172.254,98.033 172.876,98.162 173.390 C 98.289 173.897,98.800 174.416,99.297 174.545 C 99.793 174.673,100.507 175.323,100.881 175.989 C 101.256 176.655,101.829 177.200,102.154 177.200 C 102.480 177.200,102.850 177.527,102.977 177.928 C 103.104 178.328,103.746 179.053,104.404 179.540 C 105.425 180.295,105.600 180.688,105.600 182.233 C 105.600 183.870,105.710 184.080,106.763 184.447 C 107.419 184.676,108.025 185.234,108.152 185.726 C 108.276 186.207,108.923 186.907,109.589 187.281 C 110.255 187.656,110.800 188.229,110.800 188.554 C 110.800 188.880,111.162 189.261,111.604 189.401 C 112.047 189.542,112.670 190.161,112.988 190.778 C 113.307 191.394,113.933 191.994,114.379 192.110 C 114.825 192.227,115.359 192.767,115.566 193.311 C 115.773 193.854,116.385 194.410,116.927 194.546 C 117.492 194.688,118.011 195.178,118.145 195.697 C 118.273 196.193,118.923 196.907,119.589 197.281 C 120.255 197.656,120.800 198.229,120.800 198.554 C 120.800 198.880,121.162 199.261,121.604 199.401 C 122.047 199.542,122.681 200.184,123.015 200.828 C 123.539 201.841,123.849 202.001,125.310 202.006 C 127.273 202.013,127.792 202.278,128.160 203.460 C 128.308 203.933,128.827 204.423,129.314 204.549 C 129.801 204.675,130.507 205.323,130.881 205.989 C 131.256 206.655,131.812 207.200,132.117 207.200 C 132.422 207.200,132.877 207.650,133.127 208.200 C 133.494 209.005,133.877 209.202,135.091 209.213 C 136.749 209.227,137.619 209.731,138.349 211.100 C 138.612 211.595,139.087 212.000,139.404 212.000 C 139.720 212.000,140.259 212.540,140.600 213.200 C 141.104 214.176,141.474 214.400,142.578 214.400 C 144.461 214.400,145.203 214.755,145.621 215.855 C 145.912 216.620,146.270 216.800,147.501 216.800 C 149.158 216.800,150.800 217.707,150.800 218.623 C 150.800 219.072,151.445 219.203,153.700 219.213 C 156.707 219.226,157.527 219.556,158.340 221.083 C 158.753 221.859,159.185 221.981,161.901 222.083 C 164.829 222.194,165.020 222.258,165.518 223.300 C 166.019 224.348,166.179 224.400,168.922 224.406 C 172.053 224.413,172.444 224.550,173.154 225.900 C 173.593 226.733,173.902 226.800,177.314 226.805 C 181.817 226.812,182.580 226.999,183.143 228.234 L 183.583 229.200 223.948 229.200 L 264.313 229.200 264.552 228.248 C 264.839 227.107,265.768 226.813,269.110 226.805 C 271.409 226.800,271.651 226.717,271.996 225.811 C 272.366 224.838,273.064 224.527,275.360 224.310 C 276.023 224.247,276.708 223.858,276.960 223.400 C 277.615 222.209,278.031 222.013,279.910 222.006 C 281.352 222.001,281.678 221.847,281.991 221.024 C 282.458 219.796,283.554 219.200,285.347 219.200 C 286.409 219.200,286.809 219.001,287.008 218.376 C 287.152 217.922,287.704 217.353,288.235 217.111 C 288.766 216.870,289.200 216.520,289.200 216.336 C 289.200 215.426,290.891 214.400,292.390 214.400 C 293.752 214.400,294.068 214.228,294.600 213.200 C 294.941 212.540,295.490 212.000,295.819 212.000 C 296.148 212.000,296.613 211.570,296.853 211.044 C 297.092 210.518,297.699 209.868,298.200 209.600 C 298.702 209.332,299.332 208.702,299.600 208.200 C 299.868 207.699,300.518 207.092,301.044 206.853 C 301.570 206.613,302.000 206.148,302.000 205.819 C 302.000 205.490,302.505 204.959,303.122 204.640 C 303.739 204.321,304.455 203.596,304.714 203.030 C 304.972 202.463,305.461 202.000,305.800 202.000 C 306.139 202.000,306.613 201.570,306.853 201.044 C 307.092 200.518,307.718 199.858,308.244 199.576 C 308.951 199.198,309.200 198.726,309.200 197.765 C 309.200 195.910,309.541 195.251,310.848 194.575 C 311.860 194.052,312.000 193.759,312.000 192.171 C 312.000 190.581,312.145 190.281,313.197 189.681 C 314.211 189.105,314.396 188.754,314.404 187.400 C 314.414 185.566,314.646 185.106,315.900 184.446 C 316.702 184.024,316.800 183.668,316.800 181.186 C 316.800 178.433,317.545 176.800,318.800 176.800 C 319.040 176.800,319.205 175.158,319.213 172.700 C 319.226 168.427,319.451 167.730,321.100 166.851 C 321.943 166.402,322.000 166.111,322.006 162.286 C 322.013 158.010,322.100 157.677,323.400 156.957 C 324.175 156.527,324.203 156.043,324.305 141.281 L 324.409 126.048 323.305 125.520 C 322.257 125.019,322.194 124.832,322.083 121.901 C 321.981 119.185,321.859 118.753,321.083 118.340 C 319.556 117.527,319.226 116.707,319.213 113.700 C 319.203 111.445,319.072 110.800,318.623 110.800 C 317.707 110.800,316.800 109.158,316.800 107.501 C 316.800 106.270,316.620 105.912,315.855 105.621 C 314.755 105.203,314.400 104.461,314.400 102.578 C 314.400 101.474,314.176 101.104,313.200 100.600 C 312.178 100.072,312.000 99.748,312.000 98.422 C 312.000 96.537,311.678 95.600,311.031 95.600 C 310.765 95.600,310.015 94.999,309.364 94.263 C 308.713 93.528,307.937 92.846,307.640 92.747 C 307.315 92.638,307.018 91.729,306.898 90.478 C 306.726 88.692,306.559 88.355,305.745 88.150 C 305.176 88.008,304.694 87.516,304.546 86.927 C 304.410 86.385,303.854 85.773,303.311 85.566 C 302.767 85.359,302.227 84.825,302.110 84.379 C 301.994 83.933,301.394 83.307,300.778 82.988 C 300.161 82.670,299.542 82.047,299.401 81.604 C 299.261 81.162,298.880 80.800,298.554 80.800 C 298.229 80.800,297.670 80.291,297.313 79.668 C 296.956 79.046,296.154 78.244,295.532 77.887 C 294.909 77.530,294.400 76.954,294.400 76.609 C 294.400 76.263,293.933 75.802,293.361 75.585 C 292.790 75.368,292.227 74.825,292.110 74.379 C 291.994 73.933,291.394 73.307,290.778 72.988 C 290.161 72.670,289.542 72.047,289.401 71.604 C 289.197 70.961,288.798 70.800,287.402 70.800 C 285.623 70.800,284.400 70.058,284.400 68.979 C 284.400 68.669,283.965 68.306,283.434 68.173 C 282.876 68.033,282.265 67.439,281.986 66.765 C 281.558 65.733,281.306 65.600,279.780 65.600 C 278.143 65.600,276.800 64.862,276.800 63.963 C 276.800 63.754,276.370 63.387,275.844 63.147 C 275.318 62.908,274.692 62.282,274.453 61.756 C 274.099 60.979,273.716 60.800,272.409 60.800 C 270.865 60.800,269.200 59.776,269.200 58.827 C 269.200 58.622,268.838 58.339,268.396 58.199 C 267.953 58.058,267.324 57.426,266.997 56.794 C 266.487 55.809,266.131 55.626,264.511 55.522 C 262.969 55.423,262.529 55.219,262.135 54.425 C 261.869 53.888,261.202 53.214,260.653 52.926 C 260.104 52.639,259.540 52.043,259.401 51.602 C 259.261 51.161,258.880 50.800,258.554 50.800 C 258.229 50.800,257.656 50.261,257.281 49.603 C 256.765 48.694,256.310 48.403,255.400 48.397 C 253.352 48.383,252.484 47.967,251.984 46.762 C 251.720 46.123,251.260 45.600,250.963 45.600 C 250.667 45.600,250.025 45.060,249.537 44.400 C 248.826 43.439,248.352 43.200,247.153 43.200 C 245.752 43.200,244.400 42.405,244.400 41.582 C 244.400 41.383,243.883 40.953,243.251 40.626 C 242.619 40.299,242.006 39.665,241.888 39.216 C 241.693 38.469,241.361 38.400,237.937 38.395 C 233.254 38.388,232.581 38.203,231.984 36.762 C 231.564 35.747,231.295 35.599,229.851 35.594 C 227.966 35.587,227.509 35.360,226.846 34.100 C 226.391 33.236,226.158 33.200,221.086 33.194 C 215.496 33.187,215.193 33.119,214.446 31.700 C 214.024 30.899,213.667 30.800,211.213 30.800 C 208.702 30.800,208.429 30.881,208.173 31.700 M210.600 63.200 C 210.941 63.860,211.383 64.400,211.582 64.400 C 212.703 64.400,213.200 65.751,213.200 68.800 C 213.200 71.849,212.703 73.200,211.582 73.200 C 211.383 73.200,210.938 73.747,210.592 74.415 L 209.964 75.630 206.286 75.515 C 202.716 75.403,202.593 75.368,202.082 74.300 C 201.793 73.695,201.386 73.200,201.178 73.200 C 198.603 73.200,198.323 65.881,200.848 64.575 C 201.482 64.247,202.000 63.750,202.000 63.470 C 202.000 61.458,209.577 61.221,210.600 63.200 M264.884 67.429 C 265.720 68.447,266.622 69.353,267.540 70.096 C 269.270 71.496,268.716 77.209,266.752 78.225 C 266.118 78.553,265.600 79.080,265.600 79.396 C 265.600 81.302,258.348 81.478,257.281 79.599 C 256.907 78.938,256.240 78.284,255.800 78.145 C 254.080 77.601,253.656 71.473,255.240 70.040 C 256.293 69.088,256.688 68.693,257.640 67.640 C 258.629 66.546,264.031 66.389,264.884 67.429 M259.911 87.423 C 260.400 87.765,260.800 88.305,260.800 88.623 C 260.800 88.940,260.980 89.200,261.200 89.200 C 263.710 89.200,264.167 97.403,261.700 98.173 C 261.205 98.328,260.800 98.653,260.800 98.895 C 260.800 100.839,261.348 100.800,233.719 100.800 L 207.963 100.800 207.281 99.599 C 206.907 98.938,206.240 98.284,205.800 98.145 C 204.080 97.601,203.656 91.473,205.240 90.040 C 205.702 89.622,206.260 89.100,206.480 88.880 C 206.700 88.660,207.222 88.102,207.640 87.640 C 208.671 86.501,258.300 86.294,259.911 87.423 M33.147 189.356 C 32.908 189.882,32.273 190.512,31.738 190.756 C 30.410 191.361,30.459 196.218,31.800 196.958 C 32.240 197.201,32.686 197.456,32.791 197.525 C 32.896 197.593,33.076 198.583,33.191 199.725 C 33.444 202.234,35.899 203.137,36.842 201.068 C 37.087 200.529,37.699 199.868,38.200 199.600 C 38.702 199.332,39.332 198.702,39.600 198.200 C 39.868 197.699,40.518 197.092,41.044 196.853 C 41.570 196.613,42.000 196.148,42.000 195.819 C 42.000 195.490,42.540 194.941,43.200 194.600 C 44.905 193.718,44.933 191.496,43.251 190.626 C 42.619 190.299,42.006 189.665,41.888 189.216 C 41.533 187.856,33.774 187.980,33.147 189.356 M335.712 269.216 C 335.594 269.665,334.994 270.293,334.378 270.612 C 333.761 270.930,333.150 271.526,333.021 271.935 C 332.891 272.344,332.327 272.887,331.768 273.142 C 330.418 273.757,330.489 276.376,331.874 276.984 C 332.355 277.195,332.936 277.780,333.165 278.284 C 333.571 279.173,333.742 279.200,338.991 279.200 L 344.400 279.200 344.400 275.210 C 344.400 271.221,344.400 271.220,343.251 270.626 C 342.619 270.299,342.006 269.665,341.888 269.216 C 341.698 268.490,341.357 268.400,338.800 268.400 C 336.243 268.400,335.902 268.490,335.712 269.216 " stroke="none" fill="#fcfcfc" fill-rule="evenodd"></path><path id="path1" d="M188.800 20.400 L 186.619 22.800 177.585 22.800 L 168.550 22.800 167.663 24.000 C 166.781 25.193,166.754 25.200,162.804 25.200 C 159.678 25.200,158.722 25.334,158.316 25.829 C 156.744 27.745,156.339 28.000,154.875 28.000 C 153.645 28.000,153.179 28.232,152.463 29.200 C 151.749 30.165,151.280 30.400,150.063 30.400 C 148.846 30.400,148.377 30.635,147.663 31.600 C 146.952 32.562,146.479 32.800,145.277 32.800 C 144.112 32.800,143.543 33.067,142.725 34.000 C 141.926 34.910,141.329 35.200,140.252 35.200 C 139.446 35.200,138.608 35.472,138.316 35.829 C 138.032 36.174,137.440 36.813,137.000 37.249 C 135.882 38.355,135.740 38.498,134.861 39.400 C 134.432 39.840,133.298 40.954,132.341 41.877 C 130.099 44.036,128.867 45.292,127.220 47.100 C 126.666 47.708,125.943 48.000,124.991 48.000 C 123.745 48.000,123.178 48.414,120.064 51.600 C 117.085 54.648,116.350 55.200,115.267 55.200 C 113.343 55.200,90.400 78.148,90.400 80.073 C 90.400 81.088,89.901 81.823,87.800 83.903 C 86.370 85.319,85.200 86.601,85.200 86.753 C 85.200 86.904,84.660 87.346,84.000 87.736 C 83.003 88.325,82.800 88.702,82.800 89.956 C 82.800 91.131,82.533 91.706,81.600 92.537 C 80.689 93.349,80.400 93.951,80.400 95.039 C 80.400 96.131,80.114 96.723,79.200 97.525 C 78.270 98.341,78.000 98.913,78.000 100.069 C 78.000 101.302,77.758 101.743,76.600 102.627 C 75.225 103.676,75.200 103.746,75.200 106.625 C 75.200 109.456,75.160 109.579,74.000 110.264 L 72.800 110.972 72.800 115.074 C 72.800 119.168,72.798 119.178,71.600 120.063 L 70.400 120.950 70.400 135.048 L 70.400 149.146 71.600 150.000 L 72.800 150.854 72.800 155.000 L 72.800 159.146 74.000 160.000 C 75.135 160.808,75.200 161.005,75.200 163.611 C 75.200 165.610,75.370 166.510,75.819 166.884 C 78.985 169.523,80.400 171.302,80.400 172.642 C 80.400 173.977,83.750 178.000,84.862 178.000 C 85.048 178.000,85.200 178.715,85.200 179.589 C 85.200 181.755,88.092 184.800,90.149 184.800 C 91.790 184.800,92.800 185.836,92.800 187.521 C 92.800 189.469,118.196 214.800,120.149 214.800 C 121.108 214.800,121.770 215.144,122.651 216.100 C 123.310 216.815,124.198 217.702,124.625 218.072 C 125.051 218.441,125.616 218.981,125.881 219.272 C 126.145 219.562,126.595 220.003,126.881 220.251 C 127.166 220.499,127.713 221.084,128.096 221.551 C 128.560 222.117,129.251 222.400,130.168 222.400 C 131.427 222.400,132.800 223.216,132.800 223.964 C 132.800 224.133,133.253 224.478,133.806 224.730 C 134.359 224.982,135.018 225.641,135.270 226.194 C 135.646 227.020,136.009 227.200,137.298 227.200 C 138.590 227.200,139.088 227.448,140.108 228.600 C 141.091 229.710,141.645 230.000,142.785 230.000 C 143.881 230.000,144.472 230.285,145.275 231.200 C 146.243 232.303,146.539 232.400,148.935 232.400 C 151.520 232.400,151.669 232.464,153.116 234.186 C 153.488 234.629,154.401 234.800,156.389 234.800 C 158.995 234.800,159.192 234.865,160.000 236.000 C 160.810 237.138,160.999 237.200,163.661 237.200 C 166.366 237.200,166.513 237.251,167.708 238.600 L 168.947 240.000 172.930 240.000 C 177.364 240.000,177.963 240.312,177.987 242.636 C 177.996 243.517,177.627 244.230,176.700 245.122 C 175.985 245.810,175.220 246.564,175.000 246.797 C 174.780 247.031,173.655 248.107,172.500 249.188 C 170.737 250.839,170.400 251.381,170.400 252.562 C 170.400 253.877,169.223 255.600,168.325 255.600 C 168.146 255.600,168.000 256.335,168.000 257.234 C 168.000 258.599,167.769 259.073,166.600 260.108 C 165.470 261.109,165.200 261.636,165.200 262.846 C 165.200 264.056,164.968 264.511,164.000 265.200 C 163.018 265.899,162.800 266.338,162.800 267.615 C 162.800 268.886,162.577 269.341,161.600 270.063 C 160.635 270.776,160.400 271.247,160.400 272.460 C 160.400 273.876,159.260 275.600,158.325 275.600 C 158.146 275.600,158.000 276.335,158.000 277.234 C 158.000 278.599,157.769 279.073,156.600 280.108 C 155.522 281.062,155.200 281.657,155.200 282.696 C 155.200 283.771,154.807 284.444,153.264 286.012 C 151.152 288.157,151.235 288.161,149.284 285.819 C 148.915 285.376,148.025 285.200,146.148 285.200 C 143.737 285.200,143.444 285.104,142.475 284.000 C 141.440 282.820,141.355 282.800,137.514 282.800 C 133.676 282.800,133.587 282.778,132.537 281.600 C 131.559 280.502,131.249 280.400,128.898 280.400 C 126.543 280.400,126.240 280.300,125.275 279.200 C 124.299 278.088,124.022 278.000,121.511 278.000 C 118.736 278.000,118.622 277.946,116.884 275.829 C 116.506 275.368,115.633 275.200,113.611 275.200 C 111.005 275.200,110.808 275.135,110.000 274.000 C 109.301 273.018,108.862 272.800,107.585 272.800 C 106.314 272.800,105.859 272.577,105.137 271.600 C 104.300 270.468,104.092 270.400,101.489 270.400 C 98.922 270.400,98.654 270.316,97.675 269.200 C 96.858 268.269,96.287 268.000,95.128 268.000 C 93.900 268.000,93.435 267.751,92.517 266.600 C 91.600 265.451,91.133 265.200,89.912 265.200 C 88.722 265.200,88.246 264.959,87.537 264.000 C 86.829 263.043,86.350 262.800,85.169 262.800 C 83.892 262.800,83.360 262.470,81.296 260.400 C 79.362 258.461,78.657 258.000,77.618 258.000 C 76.651 258.000,76.024 257.653,75.092 256.600 C 74.127 255.509,73.548 255.200,72.470 255.200 C 71.305 255.200,70.724 254.823,68.769 252.800 C 66.785 250.748,66.242 250.400,65.021 250.400 C 64.044 250.400,63.372 250.129,62.896 249.543 C 62.513 249.071,61.865 248.396,61.455 248.043 C 60.649 247.347,60.089 246.772,59.284 245.814 C 59.001 245.476,58.144 245.200,57.380 245.200 C 56.451 245.200,55.762 244.920,55.296 244.351 C 54.913 243.884,54.376 243.299,54.102 243.051 C 53.257 242.286,47.427 236.475,46.949 235.922 C 46.701 235.635,46.161 235.111,45.749 234.757 C 45.337 234.404,44.707 233.774,44.349 233.357 C 43.992 232.941,42.867 231.848,41.849 230.928 C 40.326 229.551,40.000 229.011,40.000 227.867 C 40.000 226.688,39.607 226.088,37.400 223.903 C 34.062 220.598,33.985 219.752,36.754 216.848 C 38.367 215.157,38.948 214.800,40.088 214.800 C 41.117 214.800,41.740 214.495,42.537 213.600 C 43.340 212.699,43.955 212.400,45.007 212.400 C 45.941 212.400,46.640 212.121,47.104 211.562 C 48.277 210.149,51.316 207.200,51.598 207.200 C 51.745 207.200,52.095 206.770,52.376 206.244 C 52.658 205.718,53.303 205.099,53.809 204.869 C 54.316 204.638,54.839 204.107,54.972 203.688 C 55.105 203.270,55.660 202.689,56.207 202.396 L 57.200 201.865 57.200 192.717 L 57.200 183.570 55.410 181.885 C 54.426 180.958,53.391 179.997,53.110 179.749 C 52.830 179.501,52.311 178.961,51.957 178.549 C 51.604 178.137,50.974 177.498,50.557 177.128 C 50.141 176.759,49.568 176.174,49.284 175.828 C 48.509 174.884,29.091 174.884,28.316 175.829 C 26.780 177.701,26.325 178.000,25.014 178.000 C 23.830 178.000,23.216 178.411,20.814 180.814 L 18.000 183.628 18.000 198.853 L 18.000 214.079 19.200 215.200 C 20.293 216.221,20.400 216.551,20.400 218.894 C 20.400 221.249,20.502 221.558,21.600 222.537 C 22.549 223.382,22.800 223.936,22.800 225.180 C 22.800 226.506,22.990 226.867,24.001 227.464 C 24.661 227.854,25.303 228.494,25.427 228.887 C 25.552 229.279,25.815 229.600,26.011 229.600 C 26.821 229.600,28.000 231.417,28.000 232.663 C 28.000 234.664,50.538 257.200,52.539 257.200 C 53.738 257.200,54.248 257.517,55.881 259.281 C 56.145 259.566,56.595 260.003,56.881 260.251 C 57.166 260.499,57.713 261.084,58.096 261.551 C 58.560 262.117,59.251 262.400,60.168 262.400 C 61.427 262.400,62.800 263.216,62.800 263.964 C 62.800 264.133,63.253 264.478,63.806 264.730 C 64.359 264.982,65.018 265.641,65.270 266.194 C 65.646 267.020,66.009 267.200,67.298 267.200 C 68.590 267.200,69.088 267.448,70.108 268.600 C 71.080 269.698,71.650 270.000,72.749 270.000 C 73.938 270.000,74.500 270.363,76.463 272.400 C 78.424 274.436,78.987 274.800,80.176 274.800 C 81.268 274.800,81.771 275.064,82.463 276.000 C 83.185 276.976,83.641 277.200,84.909 277.200 C 86.188 277.200,86.691 277.452,87.708 278.600 C 88.709 279.730,89.236 280.000,90.446 280.000 C 91.656 280.000,92.111 280.232,92.800 281.200 C 93.602 282.327,93.817 282.400,96.327 282.406 C 99.250 282.413,99.649 282.561,100.354 283.900 C 100.739 284.630,101.168 284.800,102.633 284.800 C 104.218 284.800,104.520 284.945,105.119 285.997 C 105.776 287.153,105.901 287.195,108.680 287.197 C 111.499 287.200,111.581 287.229,112.627 288.600 C 113.673 289.971,113.754 290.000,116.572 290.000 C 119.305 290.000,119.494 290.060,120.337 291.200 C 121.174 292.333,121.379 292.400,124.000 292.400 C 126.621 292.400,126.826 292.467,127.663 293.600 C 128.549 294.797,128.559 294.800,132.648 294.800 C 136.744 294.800,136.746 294.800,137.600 296.000 C 138.405 297.131,138.611 297.200,141.157 297.200 C 143.344 297.200,144.007 297.354,144.630 298.005 C 145.054 298.448,145.634 299.033,145.919 299.305 C 148.096 301.380,148.000 301.052,148.000 306.455 L 148.000 311.559 146.600 312.627 L 145.200 313.695 145.200 320.361 L 145.200 327.028 144.000 327.736 L 142.800 328.445 142.800 348.811 L 142.800 369.176 141.600 370.063 L 140.400 370.950 140.400 385.475 L 140.400 400.000 146.400 400.000 L 152.400 400.000 152.406 388.100 C 152.412 375.737,152.425 375.622,153.900 374.846 L 154.800 374.372 154.800 354.002 L 154.800 333.631 155.675 332.816 C 156.157 332.367,156.697 332.000,156.875 332.000 C 157.054 332.000,157.200 329.015,157.200 325.366 L 157.200 318.732 158.600 317.492 L 160.000 316.253 160.000 309.775 C 160.000 304.771,160.125 303.194,160.549 302.842 C 161.115 302.372,162.400 302.631,162.400 303.214 C 162.400 304.251,163.784 304.800,166.401 304.800 C 168.994 304.800,169.193 304.866,170.000 306.000 C 170.852 307.197,170.866 307.200,174.861 307.200 L 178.868 307.200 180.108 308.600 L 181.347 310.000 185.398 310.000 C 189.436 310.000,189.453 310.004,190.337 311.200 C 191.216 312.389,191.259 312.400,195.112 312.406 C 199.274 312.413,199.623 312.512,200.354 313.900 C 200.799 314.745,201.081 314.800,204.987 314.800 L 209.146 314.800 210.000 316.000 L 210.854 317.200 245.000 317.200 L 279.146 317.200 280.000 316.000 L 280.854 314.800 285.000 314.800 L 289.146 314.800 290.000 313.600 C 290.808 312.465,291.005 312.400,293.612 312.400 C 296.288 312.400,298.000 311.590,298.000 310.325 C 298.000 310.146,299.265 310.000,300.810 310.000 L 303.621 310.000 310.410 303.224 C 316.460 297.187,317.200 296.304,317.202 295.124 C 317.208 291.439,323.010 288.619,325.275 291.200 L 326.328 292.400 337.532 292.400 L 348.736 292.400 352.968 288.204 C 356.705 284.498,357.200 283.847,357.200 282.636 C 357.200 281.587,357.529 280.955,358.600 279.944 L 360.000 278.624 360.000 273.786 L 360.000 268.947 358.600 267.708 C 357.486 266.721,357.200 266.173,357.200 265.019 C 357.200 263.666,354.301 260.000,353.231 260.000 C 353.068 260.000,352.694 259.550,352.400 259.000 C 351.972 258.200,351.558 258.000,350.332 258.000 C 348.860 258.000,348.458 257.747,346.884 255.829 C 346.444 255.292,345.086 255.200,337.600 255.200 C 330.114 255.200,328.756 255.292,328.316 255.829 C 328.032 256.174,327.494 256.759,327.120 257.129 C 326.175 258.062,325.760 258.478,324.855 259.400 C 324.423 259.840,323.154 261.078,322.035 262.151 C 320.916 263.224,320.000 264.229,320.000 264.383 C 320.000 264.538,319.550 264.906,319.000 265.200 C 318.074 265.696,318.000 265.950,318.000 268.647 C 318.000 271.505,317.974 271.579,316.600 272.627 C 315.376 273.561,315.200 273.915,315.200 275.447 C 315.200 276.411,315.048 277.200,314.862 277.200 C 313.737 277.200,310.400 281.224,310.400 282.581 C 310.400 283.550,310.128 284.231,309.551 284.704 C 309.084 285.087,308.499 285.638,308.251 285.929 C 307.606 286.685,306.559 287.717,305.829 288.316 C 305.480 288.602,305.200 289.441,305.200 290.200 C 305.200 291.380,304.755 292.012,301.967 294.784 L 298.734 298.000 296.042 298.000 C 293.515 298.000,293.296 298.073,292.463 299.200 C 291.626 300.333,291.421 300.400,288.800 300.400 C 286.179 300.400,285.974 300.467,285.137 301.600 C 284.251 302.797,284.241 302.800,280.152 302.800 C 276.056 302.800,276.054 302.800,275.200 304.000 L 274.346 305.200 245.173 305.200 C 213.671 305.200,214.400 305.247,214.400 303.200 C 214.400 302.959,212.737 302.800,210.212 302.800 L 206.024 302.800 205.137 301.600 C 204.255 300.407,204.226 300.400,200.289 300.400 C 196.388 300.400,196.312 300.382,195.275 299.200 C 194.238 298.019,194.160 298.000,190.277 298.000 L 186.332 298.000 185.092 296.600 L 183.853 295.200 179.942 295.200 C 176.065 295.200,174.400 294.577,174.400 293.125 C 174.400 292.946,173.078 292.800,171.462 292.800 C 167.694 292.800,167.200 292.339,167.200 288.822 C 167.200 286.460,167.284 286.231,168.600 285.026 C 169.683 284.034,170.000 283.430,170.000 282.361 C 170.000 281.325,170.301 280.714,171.200 279.925 C 172.080 279.153,172.402 278.515,172.406 277.536 C 172.413 275.969,172.680 275.488,173.900 274.846 C 174.607 274.473,174.800 274.025,174.800 272.750 C 174.800 271.448,175.037 270.920,176.000 270.075 C 176.891 269.293,177.200 268.672,177.200 267.665 C 177.200 266.625,177.527 266.008,178.600 265.026 C 179.683 264.034,180.000 263.430,180.000 262.361 C 180.000 261.325,180.301 260.714,181.200 259.925 C 182.106 259.130,182.400 258.528,182.400 257.465 C 182.400 256.127,183.215 254.800,184.037 254.800 C 184.246 254.800,184.613 254.370,184.853 253.844 C 185.092 253.318,185.699 252.668,186.200 252.400 C 186.702 252.132,187.342 251.482,187.624 250.956 C 188.027 250.202,188.461 250.000,189.677 250.000 C 191.048 250.000,191.501 249.712,193.756 247.400 C 195.941 245.160,196.491 244.800,197.719 244.800 C 198.847 244.800,199.324 244.549,200.000 243.600 L 200.854 242.400 234.863 242.400 L 268.872 242.400 269.925 241.200 C 270.895 240.094,271.186 240.000,273.615 240.000 C 276.127 240.000,276.312 239.933,277.492 238.600 C 278.527 237.431,279.001 237.200,280.366 237.200 C 281.265 237.200,282.000 237.054,282.000 236.875 C 282.000 235.940,283.724 234.800,285.140 234.800 C 286.353 234.800,286.824 234.565,287.537 233.600 C 288.235 232.656,288.729 232.400,289.853 232.400 C 291.083 232.400,291.640 232.037,293.844 229.800 C 295.893 227.721,296.652 227.200,297.634 227.200 C 299.539 227.200,322.400 204.289,322.400 202.380 C 322.400 201.326,322.833 200.685,324.800 198.831 L 327.200 196.569 327.200 193.917 C 327.200 191.404,327.274 191.196,328.600 189.944 C 329.930 188.690,330.000 188.489,330.000 185.939 C 330.000 183.413,330.071 183.204,331.200 182.400 C 332.395 181.549,332.400 181.530,332.400 177.576 C 332.400 173.669,332.419 173.589,333.600 172.537 C 334.698 171.558,334.800 171.249,334.800 168.894 C 334.800 166.551,334.907 166.221,336.000 165.200 L 337.200 164.079 337.200 142.529 L 337.200 120.978 336.000 119.925 C 334.897 118.957,334.800 118.661,334.800 116.265 C 334.800 113.680,334.736 113.531,333.014 112.084 C 332.577 111.717,332.400 110.813,332.400 108.948 C 332.400 106.537,332.304 106.244,331.200 105.275 C 330.285 104.472,330.000 103.881,330.000 102.785 C 330.000 101.645,329.710 101.091,328.600 100.108 C 327.431 99.073,327.200 98.599,327.200 97.234 C 327.200 96.335,327.054 95.600,326.875 95.600 C 325.911 95.600,324.800 93.875,324.800 92.376 C 324.800 91.084,324.619 90.700,323.844 90.347 C 323.318 90.108,322.668 89.501,322.400 89.000 C 322.132 88.498,321.482 87.858,320.956 87.576 C 320.199 87.171,320.000 86.740,320.000 85.506 C 320.000 84.117,319.717 83.668,317.400 81.385 C 315.257 79.274,314.799 78.593,314.793 77.512 C 314.784 75.680,311.842 72.800,309.979 72.800 C 308.127 72.800,304.803 69.417,304.793 67.523 C 304.784 65.646,301.849 62.800,299.923 62.800 C 298.791 62.800,298.239 62.423,296.400 60.400 C 294.506 58.315,294.030 58.000,292.780 58.000 C 291.937 58.000,291.054 57.710,290.652 57.300 C 290.273 56.915,288.625 55.205,286.988 53.500 C 284.355 50.756,283.847 50.400,282.570 50.400 C 281.468 50.400,280.879 50.117,280.075 49.200 C 279.305 48.323,278.667 48.000,277.705 48.000 C 276.550 48.000,275.780 47.385,271.439 43.000 C 266.943 38.458,266.359 38.000,265.062 38.000 C 263.910 38.000,263.419 37.730,262.517 36.600 C 261.630 35.488,261.117 35.200,260.026 35.200 C 258.860 35.200,258.269 34.806,256.127 32.600 C 254.739 31.170,253.452 30.000,253.269 30.000 C 253.085 30.000,252.694 29.550,252.400 29.000 C 251.972 28.200,251.558 28.000,250.332 28.000 C 248.860 28.000,248.458 27.747,246.884 25.829 C 246.506 25.368,245.633 25.200,243.611 25.200 C 241.005 25.200,240.808 25.135,240.000 24.000 C 239.191 22.864,238.997 22.800,236.376 22.800 C 233.803 22.800,233.530 22.715,232.537 21.600 C 231.487 20.421,231.399 20.400,227.549 20.400 C 223.664 20.400,222.000 19.778,222.000 18.325 C 222.000 18.146,215.021 18.000,206.490 18.000 L 190.981 18.000 188.800 20.400 M215.275 31.200 L 216.328 32.400 221.552 32.400 L 226.776 32.400 227.663 33.600 C 228.377 34.565,228.846 34.800,230.063 34.800 C 231.280 34.800,231.749 35.035,232.463 36.000 C 233.346 37.194,233.372 37.200,237.335 37.200 L 241.319 37.200 243.844 39.800 C 246.003 42.024,246.571 42.400,247.768 42.400 C 248.538 42.400,249.401 42.675,249.684 43.010 C 252.425 46.253,253.620 47.200,254.972 47.200 C 256.291 47.200,259.327 49.811,263.116 54.202 C 263.399 54.531,264.299 54.805,265.116 54.810 C 266.425 54.819,266.882 55.126,268.984 57.410 C 271.039 59.644,271.559 60.000,272.759 60.000 C 273.936 60.000,274.507 60.370,276.463 62.400 C 278.341 64.349,279.015 64.800,280.052 64.800 C 281.093 64.800,281.805 65.281,283.903 67.400 C 286.082 69.600,286.690 70.000,287.858 70.000 C 288.991 70.000,289.553 70.340,290.997 71.900 C 291.964 72.945,292.930 73.951,293.143 74.135 C 293.514 74.457,295.039 75.963,295.978 76.935 C 297.125 78.123,302.828 83.844,303.219 84.200 C 303.460 84.420,304.091 85.050,304.620 85.600 C 305.616 86.635,305.756 86.770,307.160 88.040 C 307.735 88.560,308.000 89.284,308.000 90.332 C 308.000 91.555,308.201 91.972,308.993 92.396 C 309.540 92.689,310.082 93.227,310.197 93.592 C 310.313 93.957,310.946 94.653,311.604 95.140 C 312.577 95.859,312.800 96.316,312.800 97.585 C 312.800 98.862,313.018 99.301,314.000 100.000 C 314.954 100.679,315.200 101.151,315.200 102.299 C 315.200 103.439,315.495 104.014,316.600 105.026 C 317.673 106.008,318.000 106.625,318.000 107.665 C 318.000 108.672,318.309 109.293,319.200 110.075 C 320.316 111.054,320.400 111.322,320.400 113.889 C 320.400 116.492,320.468 116.700,321.600 117.537 C 322.740 118.380,322.800 118.568,322.803 121.312 C 322.805 124.100,322.847 124.224,324.003 124.881 L 325.200 125.563 325.200 141.295 L 325.200 157.028 324.000 157.736 L 322.800 158.445 322.800 162.611 C 322.800 166.775,322.800 166.776,321.600 167.663 C 320.407 168.545,320.400 168.574,320.400 172.511 C 320.400 176.412,320.382 176.488,319.200 177.525 C 318.094 178.496,318.000 178.785,318.000 181.225 C 318.000 183.740,317.931 183.935,316.600 185.145 C 315.455 186.187,315.200 186.705,315.200 187.987 C 315.200 189.305,315.009 189.668,314.000 190.264 C 312.977 190.868,312.800 191.215,312.800 192.611 C 312.800 193.968,312.594 194.402,311.600 195.137 C 310.669 195.825,310.400 196.334,310.400 197.407 C 310.400 199.454,294.775 215.200,292.745 215.200 C 291.679 215.200,291.008 215.657,288.927 217.800 C 286.769 220.023,286.200 220.400,285.004 220.400 C 283.955 220.400,283.339 220.699,282.537 221.600 C 281.719 222.518,281.126 222.800,280.009 222.800 C 278.852 222.800,278.367 223.048,277.663 224.000 C 276.945 224.972,276.483 225.200,275.236 225.200 C 273.945 225.200,273.522 225.427,272.627 226.600 C 271.575 227.979,271.515 228.000,268.580 228.000 C 266.941 228.000,265.600 228.146,265.600 228.325 C 265.600 228.503,265.233 229.043,264.784 229.525 L 263.969 230.400 223.800 230.400 L 183.631 230.400 182.816 229.525 C 182.367 229.043,182.000 228.503,182.000 228.325 C 182.000 228.146,180.118 228.000,177.817 228.000 L 173.634 228.000 172.517 226.600 C 171.440 225.250,171.304 225.200,168.716 225.200 C 166.114 225.200,164.400 224.376,164.400 223.125 C 164.400 222.946,163.055 222.800,161.412 222.800 C 158.556 222.800,158.385 222.747,157.537 221.600 C 156.700 220.468,156.492 220.400,153.889 220.400 C 151.322 220.400,151.054 220.316,150.075 219.200 C 149.297 218.313,148.671 218.000,147.677 218.000 C 146.642 218.000,146.046 217.677,145.092 216.600 C 144.127 215.509,143.548 215.200,142.470 215.200 C 141.305 215.200,140.724 214.823,138.769 212.800 C 136.785 210.748,136.242 210.400,135.021 210.400 C 134.044 210.400,133.372 210.129,132.896 209.543 C 132.513 209.071,131.863 208.396,131.451 208.043 C 131.039 207.689,130.499 207.181,130.251 206.913 C 130.003 206.646,129.044 205.611,128.119 204.613 C 126.761 203.148,126.178 202.800,125.080 202.800 C 123.741 202.800,122.877 202.072,116.902 195.913 C 116.628 195.631,115.998 194.981,115.502 194.469 C 115.006 193.957,114.376 193.327,114.102 193.069 C 112.947 191.980,107.363 186.401,106.949 185.922 C 106.701 185.635,106.116 185.087,105.649 184.704 C 105.039 184.204,104.800 183.554,104.800 182.395 C 104.800 181.083,104.622 180.702,103.844 180.347 C 103.318 180.108,102.668 179.501,102.400 179.000 C 102.132 178.498,101.482 177.858,100.956 177.576 C 100.430 177.295,100.000 176.942,100.000 176.793 C 100.000 176.537,94.372 170.804,93.022 169.684 C 92.676 169.397,92.400 168.547,92.400 167.768 C 92.400 166.571,92.024 166.003,89.800 163.844 L 87.200 161.319 87.200 158.460 C 87.200 156.887,87.054 155.600,86.875 155.600 C 85.415 155.600,84.800 153.938,84.800 149.996 C 84.800 146.046,84.793 146.019,83.600 145.137 L 82.400 144.250 82.400 136.337 L 82.400 128.424 83.600 127.537 L 84.800 126.650 84.800 121.485 L 84.800 116.321 86.000 115.200 C 87.102 114.171,87.200 113.860,87.200 111.405 C 87.200 108.853,87.263 108.676,88.600 107.492 C 89.730 106.491,90.000 105.964,90.000 104.754 C 90.000 103.544,90.232 103.089,91.200 102.400 C 92.182 101.701,92.400 101.262,92.400 99.985 C 92.400 98.714,92.623 98.259,93.600 97.537 C 94.569 96.820,94.800 96.356,94.800 95.121 C 94.800 94.041,95.052 93.388,95.657 92.896 C 96.129 92.513,96.804 91.866,97.157 91.458 C 97.511 91.050,98.583 89.970,99.539 89.058 C 100.496 88.146,101.576 87.063,101.939 86.651 C 102.303 86.239,102.838 85.699,103.129 85.451 C 103.626 85.027,104.564 84.104,105.558 83.060 C 107.117 81.424,107.930 80.606,108.900 79.698 C 109.672 78.975,110.000 78.272,110.000 77.342 C 110.000 75.243,118.230 67.200,120.378 67.200 C 121.552 67.200,121.977 66.991,122.396 66.207 C 122.689 65.660,123.270 65.105,123.688 64.972 C 124.107 64.839,124.638 64.316,124.869 63.809 C 125.099 63.303,125.699 62.668,126.200 62.400 C 126.702 62.132,127.342 61.482,127.624 60.956 C 128.026 60.204,128.461 60.000,129.667 60.000 C 131.114 60.000,131.547 59.648,137.539 53.600 L 143.880 47.200 146.372 47.200 L 148.864 47.200 151.264 44.800 C 153.251 42.813,153.897 42.400,155.016 42.400 C 156.278 42.400,158.000 41.202,158.000 40.325 C 158.000 40.146,158.765 40.000,159.700 40.000 C 161.163 40.000,161.555 39.805,162.517 38.600 L 163.634 37.200 168.990 37.200 L 174.346 37.200 175.200 36.000 L 176.054 34.800 185.213 34.800 C 194.304 34.800,194.375 34.793,194.846 33.900 C 195.591 32.484,195.900 32.413,201.284 32.406 C 206.404 32.400,208.000 31.905,208.000 30.325 C 208.000 29.267,214.237 30.017,215.275 31.200 M202.100 64.556 C 199.862 66.824,199.571 70.683,201.500 72.509 C 202.105 73.081,202.832 73.831,203.116 74.175 C 203.487 74.625,204.362 74.800,206.247 74.800 C 210.058 74.800,212.400 72.544,212.400 68.874 C 212.400 63.234,206.037 60.567,202.100 64.556 M256.900 69.756 C 254.973 71.708,254.381 75.714,255.845 76.884 C 256.200 77.168,257.043 77.985,257.719 78.700 C 261.125 82.305,267.200 79.155,267.200 73.785 C 267.200 68.140,260.919 65.683,256.900 69.756 M206.900 89.756 C 204.973 91.708,204.381 95.714,205.845 96.884 C 206.200 97.168,207.043 97.985,207.719 98.700 L 208.947 100.000 233.807 100.000 L 258.668 100.000 259.679 98.900 C 260.236 98.295,261.076 97.487,261.546 97.104 C 263.258 95.709,262.768 91.769,260.626 89.700 L 258.866 88.000 233.733 88.017 L 208.600 88.033 206.900 89.756 M43.253 189.177 C 46.381 192.355,46.205 193.022,40.821 198.414 C 35.398 203.846,32.400 204.477,32.400 200.187 C 32.400 198.922,31.203 197.200,30.325 197.200 C 30.146 197.200,30.000 195.837,30.000 194.171 L 30.000 191.143 31.900 189.173 L 33.800 187.204 37.553 187.202 L 41.307 187.200 43.253 189.177 M343.253 269.177 L 345.200 271.155 345.200 275.363 C 345.200 280.549,345.394 280.400,338.642 280.400 C 333.663 280.400,332.000 279.897,332.000 278.392 C 332.000 278.251,331.550 277.894,331.000 277.600 C 328.771 276.407,329.518 273.994,333.239 270.362 L 336.478 267.200 338.893 267.200 C 341.257 267.200,341.347 267.241,343.253 269.177 " stroke="none" fill="#040404" fill-rule="evenodd"></path><path id="path2" d="" stroke="none" fill="#bc10080" fill-rule="evenodd"></path><path id="path3" d="" stroke="none" fill="#bc10080" fill-rule="evenodd"></path><path id="path4" d="" stroke="none" fill="#bc10080" fill-rule="evenodd"></path></g></svg>